<svg width="35" height="35" viewBox="0 0 35 35" fill="none" xmlns="http://www.w3.org/2000/svg">
<path d="M17.5001 0.0727539C7.83516 0.0727539 0 7.90792 0 17.5729C0 26.2412 6.30913 33.42 14.5814 34.8101V21.2239H10.3599V16.3347H14.5814V12.7296C14.5814 8.54672 17.1362 6.26728 20.8682 6.26728C22.6556 6.26728 24.1917 6.40046 24.6376 6.45913V10.8314L22.0492 10.8326C20.02 10.8326 19.6288 11.7967 19.6288 13.2119V16.3322H24.4706L23.8391 21.2213H19.6288V34.927C28.2873 33.8732 35 26.5115 35 17.5678C35 7.90792 27.1648 0.0727539 17.5001 0.0727539Z" fill="black"/>
</svg>
