<svg width="27" height="27" viewBox="0 0 27 27" fill="none" xmlns="http://www.w3.org/2000/svg">
<g clip-path="url(#clip0)">
<path d="M4.26603 26.1261C3.17306 26.1261 2.0802 25.71 1.2481 24.878C-0.416034 23.2139 -0.416034 20.5062 1.2481 18.8421L17.6037 2.48634C18.6436 1.44647 20.0262 0.873779 21.4969 0.873779C22.9675 0.873779 24.35 1.44647 25.39 2.48634C27.5366 4.63299 27.5366 8.1259 25.39 10.2726L13.6401 22.0224C13.3875 22.275 12.9779 22.275 12.7252 22.0224C12.4726 21.7698 12.4726 21.3603 12.7252 21.1076L24.4751 9.35772C26.1174 7.71547 26.1174 5.04332 24.4751 3.40107C23.6796 2.60552 22.6219 2.1674 21.4969 2.1674C20.3718 2.1674 19.314 2.60552 18.5185 3.40107L2.16283 19.7569C1.60105 20.3186 1.29166 21.0655 1.29166 21.8601C1.29166 22.6546 1.60105 23.4015 2.16283 23.9633C3.32256 25.123 5.2095 25.1229 6.36918 23.9633L19.2506 11.0819C19.9265 10.4059 19.9265 9.3062 19.2506 8.63036C18.5748 7.95446 17.475 7.95446 16.7991 8.63036L8.52353 16.9059C8.27099 17.1585 7.86135 17.1585 7.60881 16.9059C7.35621 16.6533 7.35621 16.2437 7.60881 15.9911L15.8844 7.71552C17.0647 6.53523 18.9852 6.53523 20.1655 7.71552C21.3458 8.89588 21.3458 10.8163 20.1655 11.9966L7.28386 24.878C6.45187 25.71 5.35895 26.1261 4.26603 26.1261Z" fill="#BEC8D6"/>
</g>
<defs>
<clipPath id="clip0">
<rect width="27" height="27" fill="white"/>
</clipPath>
</defs>
</svg>
